<mxfile host="app.diagrams.net" modified="2024-03-08T08:42:20.172Z" agent="Mozilla/5.0 (Macintosh; Intel Mac OS X 10.15; rv:123.0) Gecko/20100101 Firefox/123.0" etag="94rqti9bd_1gfsw-Ajiv" version="24.0.2" type="google">
  <diagram name="Seite-1" id="QL4QDE5GQBR7DcBM7GMb">
    <mxGraphModel grid="1" page="1" gridSize="10" guides="1" tooltips="1" connect="1" arrows="1" fold="1" pageScale="1" pageWidth="2339" pageHeight="3300" math="0" shadow="0">
      <root>
        <mxCell id="0" />
        <object label="Background" id="e4xbaoC47YMUbLc9hft--7">
          <mxCell style="" parent="0" />
        </object>
        <mxCell id="e4xbaoC47YMUbLc9hft--8" value="StrictDoc Roadmap" style="rounded=0;whiteSpace=wrap;html=1;verticalAlign=top;fontSize=72;strokeWidth=3;" vertex="1" parent="e4xbaoC47YMUbLc9hft--7">
          <mxGeometry x="-1450" y="-130" width="4180" height="1440" as="geometry" />
        </mxCell>
        <object label="Months" id="1">
          <mxCell style="locked=1;" parent="0" />
        </object>
        <mxCell id="5Hoejhb2v4ojji3GJ6aL-1" value="2023-09" style="rounded=0;whiteSpace=wrap;fontSize=22;verticalAlign=top;strokeColor=#808080;html=1;labelBorderColor=none;labelBackgroundColor=none;" vertex="1" parent="1">
          <mxGeometry x="80" y="40" width="160" height="700" as="geometry" />
        </mxCell>
        <mxCell id="5Hoejhb2v4ojji3GJ6aL-2" value="2023-10" style="rounded=0;whiteSpace=wrap;fontSize=22;verticalAlign=top;strokeColor=#808080;html=1;labelBorderColor=none;labelBackgroundColor=none;" vertex="1" parent="1">
          <mxGeometry x="240" y="40" width="160" height="700" as="geometry" />
        </mxCell>
        <mxCell id="5Hoejhb2v4ojji3GJ6aL-3" value="2023-11" style="rounded=0;whiteSpace=wrap;fontSize=22;verticalAlign=top;strokeColor=#808080;html=1;labelBorderColor=none;labelBackgroundColor=none;" vertex="1" parent="1">
          <mxGeometry x="400" y="40" width="160" height="700" as="geometry" />
        </mxCell>
        <mxCell id="5Hoejhb2v4ojji3GJ6aL-4" value="2023-12" style="rounded=0;whiteSpace=wrap;fontSize=22;verticalAlign=top;strokeColor=#808080;html=1;labelBorderColor=none;labelBackgroundColor=none;" vertex="1" parent="1">
          <mxGeometry x="560" y="40" width="160" height="700" as="geometry" />
        </mxCell>
        <mxCell id="5Hoejhb2v4ojji3GJ6aL-6" value="2023-08" style="rounded=0;whiteSpace=wrap;fontSize=22;verticalAlign=top;strokeColor=#808080;html=1;labelBorderColor=none;labelBackgroundColor=none;" vertex="1" parent="1">
          <mxGeometry x="-80" y="40" width="160" height="700" as="geometry" />
        </mxCell>
        <mxCell id="5Hoejhb2v4ojji3GJ6aL-7" value="2023-07" style="rounded=0;whiteSpace=wrap;fontSize=22;verticalAlign=top;strokeColor=#808080;html=1;labelBorderColor=none;labelBackgroundColor=none;" vertex="1" parent="1">
          <mxGeometry x="-240" y="40" width="160" height="700" as="geometry" />
        </mxCell>
        <mxCell id="5Hoejhb2v4ojji3GJ6aL-8" value="2023-06" style="rounded=0;whiteSpace=wrap;fontSize=22;verticalAlign=top;strokeColor=#808080;html=1;labelBorderColor=none;labelBackgroundColor=none;" vertex="1" parent="1">
          <mxGeometry x="-400" y="40" width="160" height="700" as="geometry" />
        </mxCell>
        <mxCell id="5Hoejhb2v4ojji3GJ6aL-9" value="2023-05" style="rounded=0;whiteSpace=wrap;fontSize=22;verticalAlign=top;strokeColor=#808080;html=1;labelBorderColor=none;labelBackgroundColor=none;" vertex="1" parent="1">
          <mxGeometry x="-560" y="40" width="160" height="700" as="geometry" />
        </mxCell>
        <mxCell id="5Hoejhb2v4ojji3GJ6aL-10" value="2023-04" style="rounded=0;whiteSpace=wrap;fontSize=22;verticalAlign=top;strokeColor=#808080;html=1;labelBorderColor=none;labelBackgroundColor=none;" vertex="1" parent="1">
          <mxGeometry x="-720" y="40" width="160" height="700" as="geometry" />
        </mxCell>
        <mxCell id="5Hoejhb2v4ojji3GJ6aL-11" value="2023-03" style="rounded=0;whiteSpace=wrap;fontSize=22;verticalAlign=top;strokeColor=#808080;html=1;labelBorderColor=none;labelBackgroundColor=none;" vertex="1" parent="1">
          <mxGeometry x="-880" y="40" width="160" height="700" as="geometry" />
        </mxCell>
        <mxCell id="5Hoejhb2v4ojji3GJ6aL-12" value="2023-02" style="rounded=0;whiteSpace=wrap;fontSize=22;verticalAlign=top;strokeColor=#808080;html=1;labelBorderColor=none;labelBackgroundColor=none;" vertex="1" parent="1">
          <mxGeometry x="-1040" y="40" width="160" height="700" as="geometry" />
        </mxCell>
        <mxCell id="5Hoejhb2v4ojji3GJ6aL-13" value="2023-01" style="rounded=0;whiteSpace=wrap;fontSize=22;verticalAlign=top;strokeColor=#808080;html=1;labelBorderColor=none;labelBackgroundColor=none;" vertex="1" parent="1">
          <mxGeometry x="-1200" y="40" width="160" height="700" as="geometry" />
        </mxCell>
        <mxCell id="5Hoejhb2v4ojji3GJ6aL-25" value="2024-01" style="rounded=0;whiteSpace=wrap;fontSize=22;verticalAlign=top;strokeColor=#808080;html=1;labelBorderColor=none;labelBackgroundColor=none;" vertex="1" parent="1">
          <mxGeometry x="720" y="40" width="160" height="700" as="geometry" />
        </mxCell>
        <mxCell id="5Hoejhb2v4ojji3GJ6aL-26" value="2024-02" style="rounded=0;whiteSpace=wrap;fontSize=22;verticalAlign=top;strokeColor=#808080;html=1;labelBorderColor=none;labelBackgroundColor=none;" vertex="1" parent="1">
          <mxGeometry x="880" y="40" width="160" height="700" as="geometry" />
        </mxCell>
        <mxCell id="5Hoejhb2v4ojji3GJ6aL-27" value="2024-03" style="rounded=0;whiteSpace=wrap;fontSize=22;verticalAlign=top;strokeColor=#808080;html=1;labelBorderColor=none;labelBackgroundColor=none;" vertex="1" parent="1">
          <mxGeometry x="1040" y="40" width="160" height="700" as="geometry" />
        </mxCell>
        <mxCell id="5Hoejhb2v4ojji3GJ6aL-30" value="2024-04" style="rounded=0;whiteSpace=wrap;fontSize=22;verticalAlign=top;strokeColor=#808080;html=1;labelBorderColor=none;labelBackgroundColor=none;" vertex="1" parent="1">
          <mxGeometry x="1200" y="40" width="160" height="700" as="geometry" />
        </mxCell>
        <mxCell id="5Hoejhb2v4ojji3GJ6aL-31" value="2024-05" style="rounded=0;whiteSpace=wrap;fontSize=22;verticalAlign=top;strokeColor=#808080;html=1;labelBorderColor=none;labelBackgroundColor=none;" vertex="1" parent="1">
          <mxGeometry x="1360" y="40" width="160" height="700" as="geometry" />
        </mxCell>
        <mxCell id="5Hoejhb2v4ojji3GJ6aL-32" value="2024-06" style="rounded=0;whiteSpace=wrap;fontSize=22;verticalAlign=top;strokeColor=#808080;html=1;labelBorderColor=none;labelBackgroundColor=none;" vertex="1" parent="1">
          <mxGeometry x="1520" y="40" width="160" height="700" as="geometry" />
        </mxCell>
        <mxCell id="5Hoejhb2v4ojji3GJ6aL-33" value="2024-07" style="rounded=0;whiteSpace=wrap;fontSize=22;verticalAlign=top;strokeColor=#808080;html=1;labelBorderColor=none;labelBackgroundColor=none;" vertex="1" parent="1">
          <mxGeometry x="1680" y="40" width="160" height="700" as="geometry" />
        </mxCell>
        <mxCell id="5Hoejhb2v4ojji3GJ6aL-34" value="2024-08" style="rounded=0;whiteSpace=wrap;fontSize=22;verticalAlign=top;strokeColor=#808080;html=1;labelBorderColor=none;labelBackgroundColor=none;" vertex="1" parent="1">
          <mxGeometry x="1840" y="40" width="160" height="700" as="geometry" />
        </mxCell>
        <mxCell id="5Hoejhb2v4ojji3GJ6aL-35" value="2024-09" style="rounded=0;whiteSpace=wrap;fontSize=22;verticalAlign=top;strokeColor=#808080;html=1;labelBorderColor=none;labelBackgroundColor=none;" vertex="1" parent="1">
          <mxGeometry x="2000" y="40" width="160" height="700" as="geometry" />
        </mxCell>
        <mxCell id="5Hoejhb2v4ojji3GJ6aL-36" value="2024-10" style="rounded=0;whiteSpace=wrap;fontSize=22;verticalAlign=top;strokeColor=#808080;html=1;labelBorderColor=none;labelBackgroundColor=none;" vertex="1" parent="1">
          <mxGeometry x="2160" y="40" width="160" height="700" as="geometry" />
        </mxCell>
        <mxCell id="5Hoejhb2v4ojji3GJ6aL-37" value="2024-11" style="rounded=0;whiteSpace=wrap;fontSize=22;verticalAlign=top;strokeColor=#808080;html=1;labelBorderColor=none;labelBackgroundColor=none;" vertex="1" parent="1">
          <mxGeometry x="2320" y="40" width="160" height="700" as="geometry" />
        </mxCell>
        <mxCell id="5Hoejhb2v4ojji3GJ6aL-38" value="2024-12" style="rounded=0;whiteSpace=wrap;fontSize=22;verticalAlign=top;strokeColor=#808080;html=1;labelBorderColor=none;labelBackgroundColor=none;" vertex="1" parent="1">
          <mxGeometry x="2480" y="40" width="160" height="700" as="geometry" />
        </mxCell>
        <mxCell id="5Hoejhb2v4ojji3GJ6aL-47" value="2022-12" style="rounded=0;whiteSpace=wrap;fontSize=22;verticalAlign=top;strokeColor=#808080;html=1;labelBorderColor=none;labelBackgroundColor=none;" vertex="1" parent="1">
          <mxGeometry x="-1360" y="40" width="160" height="700" as="geometry" />
        </mxCell>
        <object label="Clusters" id="5Hoejhb2v4ojji3GJ6aL-50">
          <mxCell style="" parent="0" />
        </object>
        <mxCell id="5Hoejhb2v4ojji3GJ6aL-55" value="Backlog" style="rounded=0;whiteSpace=wrap;html=1;verticalAlign=top;fontSize=20;" vertex="1" parent="5Hoejhb2v4ojji3GJ6aL-50">
          <mxGeometry x="-1360" y="800" width="990" height="390" as="geometry" />
        </mxCell>
        <object label="Figures" id="5Hoejhb2v4ojji3GJ6aL-5">
          <mxCell style="" parent="0" />
        </object>
        <mxCell id="5Hoejhb2v4ojji3GJ6aL-21" value="Child / reverse parent links" style="text;html=1;strokeColor=#82b366;fillColor=#d5e8d4;align=center;verticalAlign=middle;whiteSpace=wrap;rounded=0;fontStyle=0;fontSize=16;" vertex="1" parent="5Hoejhb2v4ojji3GJ6aL-5">
          <mxGeometry x="-90" y="110" width="110" height="70" as="geometry" />
        </mxCell>
        <mxCell id="5Hoejhb2v4ojji3GJ6aL-39" value="Section UID, anchors and links" style="text;html=1;strokeColor=#82b366;fillColor=#d5e8d4;align=center;verticalAlign=middle;whiteSpace=wrap;rounded=0;fontStyle=0;fontSize=16;" vertex="1" parent="5Hoejhb2v4ojji3GJ6aL-5">
          <mxGeometry x="-350" y="200" width="200" height="70" as="geometry" />
        </mxCell>
        <mxCell id="5Hoejhb2v4ojji3GJ6aL-40" value="Auto-assign requirement UID" style="text;html=1;strokeColor=#82b366;fillColor=#d5e8d4;align=center;verticalAlign=middle;whiteSpace=wrap;rounded=0;fontStyle=0;fontSize=16;" vertex="1" parent="5Hoejhb2v4ojji3GJ6aL-5">
          <mxGeometry x="-450" y="380" width="90" height="70" as="geometry" />
        </mxCell>
        <mxCell id="5Hoejhb2v4ojji3GJ6aL-42" value="TextMate bundle / syntax highlighting" style="text;html=1;strokeColor=#82b366;fillColor=#d5e8d4;align=center;verticalAlign=middle;whiteSpace=wrap;rounded=0;fontStyle=0;fontSize=16;" vertex="1" parent="5Hoejhb2v4ojji3GJ6aL-5">
          <mxGeometry x="-840" y="290" width="110" height="70" as="geometry" />
        </mxCell>
        <mxCell id="5Hoejhb2v4ojji3GJ6aL-14" value="Project statistics screen" style="text;html=1;strokeColor=#82b366;fillColor=#d5e8d4;align=center;verticalAlign=middle;whiteSpace=wrap;rounded=0;fontStyle=0;fontSize=16;" vertex="1" parent="5Hoejhb2v4ojji3GJ6aL-5">
          <mxGeometry x="-110" y="200" width="220" height="70" as="geometry" />
        </mxCell>
        <mxCell id="5Hoejhb2v4ojji3GJ6aL-15" value="HTML2PDF (standalone and independent JS library, PDF documents from SDoc&#39;s HTML, front page with meta information, running titles, UI: export to PDF)" style="text;html=1;strokeColor=#82b366;fillColor=#d5e8d4;align=center;verticalAlign=middle;whiteSpace=wrap;rounded=0;fontStyle=0;fontSize=16;" vertex="1" parent="5Hoejhb2v4ojji3GJ6aL-5">
          <mxGeometry x="-960" y="650" width="1660" height="70" as="geometry" />
        </mxCell>
        <mxCell id="5Hoejhb2v4ojji3GJ6aL-16" value="&lt;a href=&quot;https://github.com/strictdoc-project/strictdoc/issues/1141&quot;&gt;&lt;font color=&quot;#000000&quot;&gt;ChatGPT&lt;/font&gt;&lt;/a&gt;" style="text;html=1;align=center;verticalAlign=middle;whiteSpace=wrap;rounded=0;fontStyle=0;fontSize=16;fillColor=#f5f5f5;fontColor=#333333;strokeColor=#666666;" vertex="1" parent="5Hoejhb2v4ojji3GJ6aL-5">
          <mxGeometry x="1900" y="110" width="90" height="70" as="geometry" />
        </mxCell>
        <mxCell id="5Hoejhb2v4ojji3GJ6aL-17" value="&lt;a href=&quot;https://github.com/strictdoc-project/strictdoc/issues/964&quot;&gt;&lt;font color=&quot;#000000&quot;&gt;Traceability&lt;/font&gt;&lt;font color=&quot;#000000&quot;&gt; Matrix Screen v0&lt;br&gt;&lt;/font&gt;&lt;/a&gt;" style="text;html=1;strokeColor=#82b366;fillColor=#d5e8d4;align=center;verticalAlign=middle;whiteSpace=wrap;rounded=0;fontStyle=0;fontSize=16;" vertex="1" parent="5Hoejhb2v4ojji3GJ6aL-5">
          <mxGeometry x="660" y="380" width="100" height="70" as="geometry" />
        </mxCell>
        <mxCell id="5Hoejhb2v4ojji3GJ6aL-18" value="Front/home/landing page" style="text;html=1;strokeColor=#666666;fillColor=#f5f5f5;align=center;verticalAlign=middle;whiteSpace=wrap;rounded=0;fontStyle=0;fontSize=16;fontColor=#333333;" vertex="1" parent="5Hoejhb2v4ojji3GJ6aL-5">
          <mxGeometry x="1490" y="560" width="280" height="70" as="geometry" />
        </mxCell>
        <mxCell id="5Hoejhb2v4ojji3GJ6aL-19" value="Basic user-scriptable ReqIF export/import" style="text;html=1;strokeColor=#82b366;fillColor=#d5e8d4;align=center;verticalAlign=middle;whiteSpace=wrap;rounded=0;fontStyle=0;fontSize=16;" vertex="1" parent="5Hoejhb2v4ojji3GJ6aL-5">
          <mxGeometry x="-70" y="290" width="100" height="70" as="geometry" />
        </mxCell>
        <mxCell id="5Hoejhb2v4ojji3GJ6aL-20" value="Requirements validation (e.g., EARS, INCOSE guides)" style="text;html=1;strokeColor=#666666;fillColor=#f5f5f5;align=center;verticalAlign=middle;whiteSpace=wrap;rounded=0;fontStyle=0;fontSize=16;fontColor=#333333;" vertex="1" parent="5Hoejhb2v4ojji3GJ6aL-5">
          <mxGeometry x="-1300" y="970" width="280" height="50" as="geometry" />
        </mxCell>
        <mxCell id="5Hoejhb2v4ojji3GJ6aL-22" value="UI: HTML tables editor" style="text;html=1;strokeColor=#666666;fillColor=#f5f5f5;align=center;verticalAlign=middle;whiteSpace=wrap;rounded=0;fontStyle=0;fontSize=16;fontColor=#333333;" vertex="1" parent="5Hoejhb2v4ojji3GJ6aL-5">
          <mxGeometry x="-1000" y="910" width="280" height="50" as="geometry" />
        </mxCell>
        <mxCell id="5Hoejhb2v4ojji3GJ6aL-23" value="CLI: --config parameter" style="text;html=1;strokeColor=#82b366;fillColor=#d5e8d4;align=center;verticalAlign=middle;whiteSpace=wrap;rounded=0;fontStyle=0;fontSize=16;" vertex="1" parent="5Hoejhb2v4ojji3GJ6aL-5">
          <mxGeometry x="130" y="200" width="70" height="70" as="geometry" />
        </mxCell>
        <mxCell id="5Hoejhb2v4ojji3GJ6aL-41" value="UI: Non-string types (Single/multiple choice, tags)" style="text;html=1;align=center;verticalAlign=middle;whiteSpace=wrap;rounded=0;fontStyle=0;fontSize=16;fillColor=#f5f5f5;fontColor=#333333;strokeColor=#666666;" vertex="1" parent="5Hoejhb2v4ojji3GJ6aL-5">
          <mxGeometry x="-1000" y="1030" width="280" height="50" as="geometry" />
        </mxCell>
        <mxCell id="5Hoejhb2v4ojji3GJ6aL-43" value="StrictDoc requirements upgrade (2 levels of specification)" style="text;html=1;strokeColor=#82b366;fillColor=#d5e8d4;align=center;verticalAlign=middle;whiteSpace=wrap;rounded=0;fontStyle=0;fontSize=16;" vertex="1" parent="5Hoejhb2v4ojji3GJ6aL-5">
          <mxGeometry x="-270" y="560" width="980" height="70" as="geometry" />
        </mxCell>
        <mxCell id="5Hoejhb2v4ojji3GJ6aL-24" value="&lt;a href=&quot;https://github.com/strictdoc-project/strictdoc/issues?q=is%3Aopen+is%3Aissue+label%3ASecurity+&quot;&gt;&lt;font color=&quot;#000000&quot;&gt;Security fixes&lt;/font&gt;&lt;/a&gt;" style="text;html=1;strokeColor=#666666;fillColor=#f5f5f5;align=center;verticalAlign=middle;whiteSpace=wrap;rounded=0;fontStyle=0;fontSize=16;fontColor=#333333;" vertex="1" parent="5Hoejhb2v4ojji3GJ6aL-5">
          <mxGeometry x="-1300" y="1090" width="280" height="50" as="geometry" />
        </mxCell>
        <mxCell id="5Hoejhb2v4ojji3GJ6aL-44" value="Switch to StrictDoc documentation from Sphinx" style="text;html=1;strokeColor=#666666;fillColor=#f5f5f5;align=center;verticalAlign=middle;whiteSpace=wrap;rounded=0;fontStyle=0;fontSize=16;fontColor=#333333;" vertex="1" parent="5Hoejhb2v4ojji3GJ6aL-5">
          <mxGeometry x="-700" y="970" width="280" height="50" as="geometry" />
        </mxCell>
        <mxCell id="5Hoejhb2v4ojji3GJ6aL-45" value="&lt;a href=&quot;https://github.com/strictdoc-project/strictdoc/issues/1541&quot;&gt;&lt;font color=&quot;#000000&quot;&gt;Basic SPDX export&lt;br&gt;&lt;/font&gt;&lt;/a&gt;" style="text;html=1;strokeColor=#82b366;fillColor=#d5e8d4;align=center;verticalAlign=middle;whiteSpace=wrap;rounded=0;fontStyle=0;fontSize=16;" vertex="1" parent="5Hoejhb2v4ojji3GJ6aL-5">
          <mxGeometry x="690" y="110" width="130" height="70" as="geometry" />
        </mxCell>
        <mxCell id="5Hoejhb2v4ojji3GJ6aL-48" value="Web interface: Document and Project Tree screens" style="text;html=1;strokeColor=#82b366;fillColor=#d5e8d4;align=center;verticalAlign=middle;whiteSpace=wrap;rounded=0;fontStyle=0;fontSize=16;" vertex="1" parent="5Hoejhb2v4ojji3GJ6aL-5">
          <mxGeometry x="-1340" y="110" width="770" height="70" as="geometry" />
        </mxCell>
        <mxCell id="5Hoejhb2v4ojji3GJ6aL-51" value="End-2-end framework and tests" style="text;html=1;strokeColor=#82b366;fillColor=#d5e8d4;align=center;verticalAlign=middle;whiteSpace=wrap;rounded=0;fontStyle=0;fontSize=16;" vertex="1" parent="5Hoejhb2v4ojji3GJ6aL-5">
          <mxGeometry x="-1340" y="200" width="910" height="70" as="geometry" />
        </mxCell>
        <mxCell id="5Hoejhb2v4ojji3GJ6aL-52" value="&lt;div&gt;UI: On-demand rendering of web pages&lt;/div&gt;" style="text;html=1;strokeColor=#82b366;fillColor=#d5e8d4;align=center;verticalAlign=middle;whiteSpace=wrap;rounded=0;fontStyle=0;fontSize=16;" vertex="1" parent="5Hoejhb2v4ojji3GJ6aL-5">
          <mxGeometry x="-430" y="110" width="120" height="70" as="geometry" />
        </mxCell>
        <mxCell id="5Hoejhb2v4ojji3GJ6aL-53" value="UI: Move TOC nodes" style="text;html=1;strokeColor=#82b366;fillColor=#d5e8d4;align=center;verticalAlign=middle;whiteSpace=wrap;rounded=0;fontStyle=0;fontSize=16;" vertex="1" parent="5Hoejhb2v4ojji3GJ6aL-5">
          <mxGeometry x="-540" y="110" width="100" height="70" as="geometry" />
        </mxCell>
        <mxCell id="5Hoejhb2v4ojji3GJ6aL-54" value="Project-level TOML config file" style="text;html=1;strokeColor=#82b366;fillColor=#d5e8d4;align=center;verticalAlign=middle;whiteSpace=wrap;rounded=0;fontStyle=0;fontSize=16;" vertex="1" parent="5Hoejhb2v4ojji3GJ6aL-5">
          <mxGeometry x="-1180" y="290" width="120" height="70" as="geometry" />
        </mxCell>
        <mxCell id="e4xbaoC47YMUbLc9hft--1" value="Config: Feature toggles" style="text;html=1;strokeColor=#82b366;fillColor=#d5e8d4;align=center;verticalAlign=middle;whiteSpace=wrap;rounded=0;fontStyle=0;fontSize=16;" vertex="1" parent="5Hoejhb2v4ojji3GJ6aL-5">
          <mxGeometry x="-500" y="290" width="90" height="70" as="geometry" />
        </mxCell>
        <mxCell id="e4xbaoC47YMUbLc9hft--2" value="&lt;div&gt;Stabilization 2023 Q1:&lt;br&gt;&lt;/div&gt;&lt;div&gt;PyInstaller, SDoc grammar, JS fixes, DTR screen: smaller requirement cards, requirements-to-source edge cases, ReqIF&lt;/div&gt;" style="text;html=1;strokeColor=#82b366;fillColor=#d5e8d4;align=center;verticalAlign=middle;whiteSpace=wrap;rounded=0;fontStyle=0;fontSize=16;" vertex="1" parent="5Hoejhb2v4ojji3GJ6aL-5">
          <mxGeometry x="-1190" y="470" width="460" height="70" as="geometry" />
        </mxCell>
        <mxCell id="e4xbaoC47YMUbLc9hft--3" value="&lt;div&gt;Stabilization 2023 Q2:&lt;br&gt;&lt;/div&gt;&lt;div&gt;Requirements-to-source edge cases, &lt;br&gt;&lt;/div&gt;RST user requests and edge cases, relative paths-related edge cases, PyInstaller" style="text;html=1;strokeColor=#82b366;fillColor=#d5e8d4;align=center;verticalAlign=middle;whiteSpace=wrap;rounded=0;fontStyle=0;fontSize=16;" vertex="1" parent="5Hoejhb2v4ojji3GJ6aL-5">
          <mxGeometry x="-710" y="470" width="460" height="70" as="geometry" />
        </mxCell>
        <mxCell id="e4xbaoC47YMUbLc9hft--4" value="Config: include/exclude docs/files" style="text;html=1;strokeColor=#82b366;fillColor=#d5e8d4;align=center;verticalAlign=middle;whiteSpace=wrap;rounded=0;fontStyle=0;fontSize=16;" vertex="1" parent="5Hoejhb2v4ojji3GJ6aL-5">
          <mxGeometry x="-320" y="290" width="110" height="70" as="geometry" />
        </mxCell>
        <mxCell id="e4xbaoC47YMUbLc9hft--5" value="&lt;div&gt;Stabilization 2023 Q3:&lt;br&gt;&lt;/div&gt;UI: Editing grammar fields, section UID edge cases, Jinja templates on macOS, performance optimizations, RST edge cases, Windows/Pip long file names issue" style="text;html=1;strokeColor=#82b366;fillColor=#d5e8d4;align=center;verticalAlign=middle;whiteSpace=wrap;rounded=0;fontStyle=0;fontSize=16;" vertex="1" parent="5Hoejhb2v4ojji3GJ6aL-5">
          <mxGeometry x="-230" y="470" width="460" height="70" as="geometry" />
        </mxCell>
        <mxCell id="e4xbaoC47YMUbLc9hft--9" value="&lt;div&gt;Mermaid&lt;/div&gt;&lt;div&gt;diagrams&lt;/div&gt;" style="text;html=1;strokeColor=#82b366;fillColor=#d5e8d4;align=center;verticalAlign=middle;whiteSpace=wrap;rounded=0;fontStyle=0;fontSize=16;" vertex="1" parent="5Hoejhb2v4ojji3GJ6aL-5">
          <mxGeometry x="30" y="110" width="70" height="70" as="geometry" />
        </mxCell>
        <mxCell id="e4xbaoC47YMUbLc9hft--10" value="Auto-commit documents to Git" style="text;html=1;strokeColor=#666666;fillColor=#f5f5f5;align=center;verticalAlign=middle;whiteSpace=wrap;rounded=0;fontStyle=0;fontSize=16;fontColor=#333333;" vertex="1" parent="5Hoejhb2v4ojji3GJ6aL-5">
          <mxGeometry x="1610" y="200" width="160" height="70" as="geometry" />
        </mxCell>
        <mxCell id="e4xbaoC47YMUbLc9hft--11" value="UI: Support multi-user work, handle conflicts" style="text;html=1;strokeColor=#666666;fillColor=#f5f5f5;align=center;verticalAlign=middle;whiteSpace=wrap;rounded=0;fontStyle=0;fontSize=16;fontColor=#333333;" vertex="1" parent="5Hoejhb2v4ojji3GJ6aL-5">
          <mxGeometry x="-1300" y="910" width="280" height="50" as="geometry" />
        </mxCell>
        <mxCell id="e4xbaoC47YMUbLc9hft--15" value="Interoperability with Doxygen" style="text;html=1;strokeColor=#666666;fillColor=#f5f5f5;align=center;verticalAlign=middle;whiteSpace=wrap;rounded=0;fontStyle=0;fontSize=16;fontColor=#333333;" vertex="1" parent="5Hoejhb2v4ojji3GJ6aL-5">
          <mxGeometry x="-1300" y="1030" width="280" height="50" as="geometry" />
        </mxCell>
        <mxCell id="e4xbaoC47YMUbLc9hft--18" value="&lt;div&gt;Stabilization 2023 Q4:&lt;/div&gt;&lt;div&gt;&amp;nbsp;Linking to files (YAML files support), flaky tests issues and end2end test robustness work, PyInstaller issue, Traceability Index API internal refactoring&lt;br&gt;&lt;/div&gt;" style="text;html=1;strokeColor=#82b366;fillColor=#d5e8d4;align=center;verticalAlign=middle;whiteSpace=wrap;rounded=0;fontStyle=0;fontSize=16;" vertex="1" parent="5Hoejhb2v4ojji3GJ6aL-5">
          <mxGeometry x="250" y="470" width="460" height="70" as="geometry" />
        </mxCell>
        <mxCell id="ZHUxJVqyrOpv6eid2pWU-1" value="Parent/child relations and roles (refines, implements, verifies)" style="text;html=1;strokeColor=#82b366;fillColor=#d5e8d4;align=center;verticalAlign=middle;whiteSpace=wrap;rounded=0;fontStyle=0;fontSize=16;" vertex="1" parent="5Hoejhb2v4ojji3GJ6aL-5">
          <mxGeometry x="210" y="110" width="170" height="70" as="geometry" />
        </mxCell>
        <mxCell id="ZHUxJVqyrOpv6eid2pWU-2" value="Basic ReqIF to JSON export" style="text;html=1;strokeColor=#82b366;fillColor=#d5e8d4;align=center;verticalAlign=middle;whiteSpace=wrap;rounded=0;fontStyle=0;fontSize=16;" vertex="1" parent="5Hoejhb2v4ojji3GJ6aL-5">
          <mxGeometry x="270" y="380" width="150" height="70" as="geometry" />
        </mxCell>
        <mxCell id="k8s1h_Z_zSzXEBWhGtG7-1" value="&lt;div&gt;UI: Copy to buffer, Edit grammar/&lt;/div&gt;&lt;div&gt;requirement tabs&lt;br&gt;&lt;/div&gt;" style="text;html=1;strokeColor=#82b366;fillColor=#d5e8d4;align=center;verticalAlign=middle;whiteSpace=wrap;rounded=0;fontStyle=0;fontSize=16;" vertex="1" parent="5Hoejhb2v4ojji3GJ6aL-5">
          <mxGeometry x="250" y="200" width="140" height="70" as="geometry" />
        </mxCell>
        <mxCell id="5td-1cRUoRHkrHs212uj-1" value="Search query engine, search screen, export filters" style="text;html=1;strokeColor=#82b366;fillColor=#d5e8d4;align=center;verticalAlign=middle;whiteSpace=wrap;rounded=0;fontStyle=0;fontSize=16;" vertex="1" parent="5Hoejhb2v4ojji3GJ6aL-5">
          <mxGeometry x="410" y="110" width="110" height="70" as="geometry" />
        </mxCell>
        <mxCell id="5td-1cRUoRHkrHs212uj-2" value="Single-line markers" style="text;html=1;strokeColor=#82b366;fillColor=#d5e8d4;align=center;verticalAlign=middle;whiteSpace=wrap;rounded=0;fontStyle=0;fontSize=16;" vertex="1" parent="5Hoejhb2v4ojji3GJ6aL-5">
          <mxGeometry x="410" y="200" width="70" height="70" as="geometry" />
        </mxCell>
        <mxCell id="bzxhuAx1fFq9lgteCzhm-1" value="&lt;a href=&quot;https://github.com/strictdoc-project/strictdoc/issues/1503&quot;&gt;&lt;font color=&quot;#000000&quot;&gt;Project tree diff/changelog&lt;/font&gt;&lt;/a&gt;" style="text;html=1;strokeColor=#82b366;fillColor=#d5e8d4;align=center;verticalAlign=middle;whiteSpace=wrap;rounded=0;fontStyle=0;fontSize=16;" vertex="1" parent="5Hoejhb2v4ojji3GJ6aL-5">
          <mxGeometry x="490" y="200" width="220" height="70" as="geometry" />
        </mxCell>
        <mxCell id="xoYxP1hTg36p0s3yFHkj-1" value="Screenshot tour" style="text;html=1;strokeColor=#666666;fillColor=#f5f5f5;align=center;verticalAlign=middle;whiteSpace=wrap;rounded=0;fontStyle=0;fontSize=16;fontColor=#333333;" vertex="1" parent="5Hoejhb2v4ojji3GJ6aL-5">
          <mxGeometry x="1220" y="110" width="80" height="70" as="geometry" />
        </mxCell>
        <mxCell id="xoYxP1hTg36p0s3yFHkj-2" value="&lt;font color=&quot;#000000&quot;&gt;Traceability navigator&lt;br&gt;&lt;/font&gt;" style="text;html=1;align=center;verticalAlign=middle;whiteSpace=wrap;rounded=0;fontStyle=0;fontSize=16;fillColor=#fff2cc;strokeColor=#d6b656;" vertex="1" parent="5Hoejhb2v4ojji3GJ6aL-5">
          <mxGeometry x="1050" y="650" width="620" height="70" as="geometry" />
        </mxCell>
        <mxCell id="xoYxP1hTg36p0s3yFHkj-4" value="UI: WYSWIG editor" style="text;html=1;strokeColor=#666666;fillColor=#f5f5f5;align=center;verticalAlign=middle;whiteSpace=wrap;rounded=0;fontStyle=0;fontSize=16;fontColor=#333333;" vertex="1" parent="5Hoejhb2v4ojji3GJ6aL-5">
          <mxGeometry x="-1000" y="970" width="280" height="50" as="geometry" />
        </mxCell>
        <mxCell id="xoYxP1hTg36p0s3yFHkj-6" value="&lt;a href=&quot;https://github.com/strictdoc-project/strictdoc/issues/1537&quot;&gt;&lt;font color=&quot;#000000&quot;&gt;UI: Editing non-requirement nodes&lt;/font&gt;&lt;/a&gt;" style="text;html=1;strokeColor=#82b366;fillColor=#d5e8d4;align=center;verticalAlign=middle;whiteSpace=wrap;rounded=0;fontStyle=0;fontSize=16;" vertex="1" parent="5Hoejhb2v4ojji3GJ6aL-5">
          <mxGeometry x="950" y="380" width="130" height="70" as="geometry" />
        </mxCell>
        <mxCell id="xoYxP1hTg36p0s3yFHkj-7" value="Basic Git operations" style="text;html=1;strokeColor=#82b366;fillColor=#d5e8d4;align=center;verticalAlign=middle;whiteSpace=wrap;rounded=0;fontStyle=0;fontSize=16;" vertex="1" parent="5Hoejhb2v4ojji3GJ6aL-5">
          <mxGeometry x="530" y="110" width="110" height="70" as="geometry" />
        </mxCell>
        <mxCell id="95ktvzvPNHJ9Z4BU69U_-1" value="Interface with Capella" style="text;html=1;align=center;verticalAlign=middle;whiteSpace=wrap;rounded=0;fontStyle=0;fontSize=16;fillColor=#f5f5f5;fontColor=#333333;strokeColor=#666666;" vertex="1" parent="5Hoejhb2v4ojji3GJ6aL-5">
          <mxGeometry x="-1000" y="1090" width="280" height="50" as="geometry" />
        </mxCell>
        <mxCell id="fWdrbh18M2HJ4tMojr6s-1" value="&lt;a href=&quot;https://github.com/strictdoc-project/strictdoc/issues/1518&quot;&gt;&lt;font color=&quot;#000000&quot;&gt;Allow arbitrary placed free texts&lt;/font&gt;&lt;/a&gt;" style="text;html=1;strokeColor=#666666;fillColor=#f5f5f5;align=center;verticalAlign=middle;whiteSpace=wrap;rounded=0;fontStyle=0;fontSize=16;fontColor=#333333;" vertex="1" parent="5Hoejhb2v4ojji3GJ6aL-5">
          <mxGeometry x="1550" y="290" width="160" height="70" as="geometry" />
        </mxCell>
        <mxCell id="fWdrbh18M2HJ4tMojr6s-2" value="Basic export to Graphviz (unsuccessful)" style="text;html=1;strokeColor=#82b366;fillColor=#d5e8d4;align=center;verticalAlign=middle;whiteSpace=wrap;rounded=0;fontStyle=0;fontSize=16;" vertex="1" parent="5Hoejhb2v4ojji3GJ6aL-5">
          <mxGeometry x="-240" y="380" width="90" height="70" as="geometry" />
        </mxCell>
        <mxCell id="YCubefTHywfSa6VliQcR-1" value="Forward range-based links to source files" style="text;html=1;strokeColor=#82b366;fillColor=#d5e8d4;align=center;verticalAlign=middle;whiteSpace=wrap;rounded=0;fontStyle=0;fontSize=16;" vertex="1" parent="5Hoejhb2v4ojji3GJ6aL-5">
          <mxGeometry x="770" y="290" width="100" height="70" as="geometry" />
        </mxCell>
        <mxCell id="YCubefTHywfSa6VliQcR-2" value="&lt;a href=&quot;https://github.com/strictdoc-project/strictdoc/issues/1509&quot;&gt;&lt;font color=&quot;#000000&quot;&gt;Custom views&lt;/font&gt;&lt;/a&gt;" style="text;html=1;strokeColor=#d6b656;fillColor=#fff2cc;align=center;verticalAlign=middle;whiteSpace=wrap;rounded=0;fontStyle=0;fontSize=16;" vertex="1" parent="5Hoejhb2v4ojji3GJ6aL-5">
          <mxGeometry x="750" y="200" width="440" height="70" as="geometry" />
        </mxCell>
        <mxCell id="YCubefTHywfSa6VliQcR-3" value="&lt;div&gt;HTML2PDF integration to StrictDoc (Export to PDF in UI and CLI,&amp;nbsp;&lt;/div&gt;&lt;div&gt;handling table and paragraph breaks)&lt;/div&gt;" style="text;html=1;strokeColor=#82b366;fillColor=#d5e8d4;align=center;verticalAlign=middle;whiteSpace=wrap;rounded=0;fontStyle=0;fontSize=16;" vertex="1" parent="5Hoejhb2v4ojji3GJ6aL-5">
          <mxGeometry x="740" y="650" width="290" height="70" as="geometry" />
        </mxCell>
        <mxCell id="q5IPKXtHMBc3mqMKsgA0-1" value="&lt;a href=&quot;https://github.com/strictdoc-project/strictdoc/issues/1692&quot;&gt;&lt;font color=&quot;#000000&quot;&gt;Grammars in separate files&lt;br&gt;&lt;/font&gt;&lt;/a&gt;" style="text;html=1;strokeColor=#666666;fillColor=#f5f5f5;align=center;verticalAlign=middle;whiteSpace=wrap;rounded=0;fontStyle=0;fontSize=16;fontColor=#333333;" vertex="1" parent="5Hoejhb2v4ojji3GJ6aL-5">
          <mxGeometry x="1140" y="290" width="160" height="70" as="geometry" />
        </mxCell>
        <mxCell id="q5IPKXtHMBc3mqMKsgA0-2" value="&lt;div&gt;Human field titles&lt;/div&gt;&lt;div&gt;(UID -&amp;gt; Unique identifier)&lt;br&gt;&lt;/div&gt;" style="text;html=1;strokeColor=#82b366;fillColor=#d5e8d4;align=center;verticalAlign=middle;whiteSpace=wrap;rounded=0;fontStyle=0;fontSize=16;" vertex="1" parent="5Hoejhb2v4ojji3GJ6aL-5">
          <mxGeometry x="960" y="110" width="130" height="70" as="geometry" />
        </mxCell>
        <mxCell id="q5IPKXtHMBc3mqMKsgA0-3" value="JSON export" style="text;html=1;strokeColor=#82b366;fillColor=#d5e8d4;align=center;verticalAlign=middle;whiteSpace=wrap;rounded=0;fontStyle=0;fontSize=16;" vertex="1" parent="5Hoejhb2v4ojji3GJ6aL-5">
          <mxGeometry x="930" y="290" width="90" height="70" as="geometry" />
        </mxCell>
        <mxCell id="q5IPKXtHMBc3mqMKsgA0-4" value="Forward range-based links to source files" style="text;html=1;strokeColor=#82b366;fillColor=#d5e8d4;align=center;verticalAlign=middle;whiteSpace=wrap;rounded=0;fontStyle=0;fontSize=16;" vertex="1" parent="5Hoejhb2v4ojji3GJ6aL-5">
          <mxGeometry x="800" y="380" width="110" height="70" as="geometry" />
        </mxCell>
        <mxCell id="q5IPKXtHMBc3mqMKsgA0-5" value="&lt;div&gt;Stabilization 2024 Q1:&lt;/div&gt;&lt;div&gt;Improvements in handling of UI templates, &lt;br&gt;&lt;/div&gt;" style="text;html=1;strokeColor=#82b366;fillColor=#d5e8d4;align=center;verticalAlign=middle;whiteSpace=wrap;rounded=0;fontStyle=0;fontSize=16;" vertex="1" parent="5Hoejhb2v4ojji3GJ6aL-5">
          <mxGeometry x="730" y="470" width="460" height="70" as="geometry" />
        </mxCell>
        <mxCell id="q5IPKXtHMBc3mqMKsgA0-6" value="Multi-document Excel export" style="text;html=1;strokeColor=#82b366;fillColor=#d5e8d4;align=center;verticalAlign=middle;whiteSpace=wrap;rounded=0;fontStyle=0;fontSize=16;" vertex="1" parent="5Hoejhb2v4ojji3GJ6aL-5">
          <mxGeometry x="840" y="110" width="100" height="70" as="geometry" />
        </mxCell>
        <mxCell id="q5IPKXtHMBc3mqMKsgA0-7" value="UI: Includable section fragments" style="text;html=1;strokeColor=#666666;fillColor=#f5f5f5;align=center;verticalAlign=middle;whiteSpace=wrap;rounded=0;fontStyle=0;fontSize=16;fontColor=#333333;" vertex="1" parent="5Hoejhb2v4ojji3GJ6aL-5">
          <mxGeometry x="1340" y="200" width="160" height="70" as="geometry" />
        </mxCell>
        <mxCell id="q5IPKXtHMBc3mqMKsgA0-8" value="&lt;font color=&quot;#000000&quot;&gt;Requirement/relation VERSION&lt;br&gt;&lt;/font&gt;" style="text;html=1;align=center;verticalAlign=middle;whiteSpace=wrap;rounded=0;fontStyle=0;fontSize=16;fillColor=#f5f5f5;fontColor=#333333;strokeColor=#666666;" vertex="1" parent="5Hoejhb2v4ojji3GJ6aL-5">
          <mxGeometry x="1720" y="110" width="120" height="70" as="geometry" />
        </mxCell>
        <mxCell id="q5IPKXtHMBc3mqMKsgA0-9" value="Strict vs warnings mode" style="text;html=1;strokeColor=#666666;fillColor=#f5f5f5;align=center;verticalAlign=middle;whiteSpace=wrap;rounded=0;fontStyle=0;fontSize=16;fontColor=#333333;" vertex="1" parent="5Hoejhb2v4ojji3GJ6aL-5">
          <mxGeometry x="1390" y="110" width="280" height="70" as="geometry" />
        </mxCell>
        <mxCell id="q5IPKXtHMBc3mqMKsgA0-10" value="UI: Edit file relations" style="text;html=1;strokeColor=#666666;fillColor=#f5f5f5;align=center;verticalAlign=middle;whiteSpace=wrap;rounded=0;fontStyle=0;fontSize=16;fontColor=#333333;" vertex="1" parent="5Hoejhb2v4ojji3GJ6aL-5">
          <mxGeometry x="1340" y="290" width="160" height="70" as="geometry" />
        </mxCell>
        <mxCell id="q5IPKXtHMBc3mqMKsgA0-11" value="Interop with other text-based requirements tools" style="text;html=1;strokeColor=#666666;fillColor=#f5f5f5;align=center;verticalAlign=middle;whiteSpace=wrap;rounded=0;fontStyle=0;fontSize=16;fontColor=#333333;" vertex="1" parent="5Hoejhb2v4ojji3GJ6aL-5">
          <mxGeometry x="-700" y="910" width="280" height="50" as="geometry" />
        </mxCell>
      </root>
    </mxGraphModel>
  </diagram>
</mxfile>
